<svg width="351" height="34" viewBox="0 0 351 34" fill="none" xmlns="http://www.w3.org/2000/svg">
<path fill-rule="evenodd" clip-rule="evenodd" d="M73.76 32.41C81.2 32.41 84.96 28.14 84.96 19.68C84.96 11.13 81.19 6.89999 73.76 6.89999C66.33 6.89999 62.61 11.23 62.61 19.68C62.61 28.13 66.32 32.41 73.76 32.41ZM73.71 26.88C70.55 26.88 68.93 24.47 68.88 19.68V19.67C68.88 14.79 70.6 12.33 73.76 12.33C76.92 12.33 78.5 14.7 78.5 19.49C78.45 24.37 76.87 26.88 73.71 26.88ZM0.100006 19.5C0.100006 27.87 3.81001 32.19 11.25 32.42L11.26 32.43C17.31 32.43 20.65 29.54 22 24.34H17.45C16.62 24.34 15.92 24.62 15.36 25.22C14.15 26.39 12.8 26.99 11.36 26.99C8.34001 26.99 6.71001 25.08 6.48001 21.32H22.37C22.83 11.7 19.16 6.91 11.35 6.91C3.86001 6.95 0.100006 11.13 0.100006 19.5ZM15.82 16.91H6.58001C7.04001 13.65 8.63 11.98 11.27 11.98C13.91 11.98 15.45 13.66 15.82 16.91ZM35.75 17.15H26.67V17.16C25.83 17.16 25.25 17.7 24.95 18.79C25.11 20.06 25.69 20.7 26.67 20.7H35.75C36.63 20.7 37.21 20.12 37.48 18.97C37.22 17.76 36.64 17.15 35.75 17.15ZM50.21 32.42C42.77 32.42 38.96 28.14 38.78 19.69C38.78 11.28 42.54 7.05 50.12 6.91C56.07 6.91 59.6 9.55999 60.67 14.9H53.93C53.19 13.23 51.89 12.34 49.93 12.34C46.68 12.34 45.05 14.8 45.05 19.68C45.05 24.56 46.77 27.02 50.21 26.98C51.65 26.98 52.91 26.38 53.93 25.21C54.53 24.61 55.23 24.33 56.02 24.33H60.67C59.55 29.35 55.93 32.56 50.21 32.42ZM93.16 16.15V31.86H86.89V17.41C86.89 10.39 90.42 6.91 97.44 6.91C100.6 6.91 103.02 7.61 104.78 9C106.55 7.65 108.96 7 112.12 7C119.14 7 122.62 10.49 122.58 17.5V31.95H119.37C117.33 31.81 116.3 30.83 116.3 28.88V16.24C116.16 13.68 114.77 12.43 112.02 12.43C109.27 12.43 107.88 13.69 107.84 16.24V31.86H101.61V16.15C101.47 13.59 100.08 12.34 97.33 12.34C94.58 12.34 93.19 13.59 93.15 16.15H93.16ZM130.78 31.86V16.15H130.77C130.81 13.59 132.2 12.34 134.95 12.34C137.7 12.34 139.09 13.59 139.23 16.15V31.86H145.46V16.24C145.5 13.69 146.89 12.43 149.64 12.43C152.39 12.43 153.78 13.68 153.92 16.24V28.88C153.92 30.83 154.95 31.81 156.99 31.95H160.2V17.5C160.24 10.49 156.76 7 149.74 7C146.58 7 144.17 7.65 142.4 9C140.64 7.61 138.22 6.91 135.06 6.91C128.04 6.91 124.51 10.39 124.51 17.41V31.86H130.78ZM173.29 32.42C165.85 32.19 162.14 27.87 162.14 19.5C162.14 11.13 165.9 6.95 173.39 6.91C181.2 6.91 184.87 11.7 184.41 21.32H168.52C168.75 25.08 170.38 26.99 173.4 26.99C174.84 26.99 176.19 26.39 177.4 25.22C177.96 24.62 178.66 24.34 179.49 24.34H184.04C182.69 29.54 179.35 32.43 173.3 32.43L173.29 32.42ZM168.62 16.91H177.86C177.49 13.66 175.95 11.98 173.31 11.98C170.67 11.98 169.08 13.65 168.62 16.91ZM199.01 7.26999C190.79 7.26999 186.56 11.22 186.37 19.17V31.85H192.64V19.07C192.64 15.49 194.36 13.68 197.8 13.68H199.89V7.26999H199.01ZM213.25 32.42C205.81 32.42 202 28.14 201.82 19.69C201.82 11.28 205.58 7.05 213.16 6.91C219.11 6.91 222.64 9.55999 223.71 14.9H216.97C216.23 13.23 214.93 12.34 212.97 12.34C209.72 12.34 208.09 14.8 208.09 19.68C208.09 24.56 209.81 27.02 213.25 26.98C214.69 26.98 215.95 26.38 216.97 25.21C217.57 24.61 218.27 24.33 219.06 24.33H223.71C222.59 29.35 218.97 32.56 213.25 32.42ZM225.64 19.5C225.64 27.87 229.35 32.19 236.79 32.42V32.43C242.84 32.43 246.18 29.54 247.53 24.34H242.98C242.15 24.34 241.45 24.62 240.89 25.22C239.68 26.39 238.33 26.99 236.89 26.99C233.87 26.99 232.24 25.08 232.01 21.32H247.9C248.37 11.7 244.7 6.91 236.89 6.91C229.4 6.95 225.64 11.13 225.64 19.5ZM241.35 16.91H232.11C232.57 13.65 234.16 11.98 236.8 11.98C239.44 11.98 240.98 13.66 241.35 16.91Z" fill="#F6F5F6"/>
<path fill-rule="evenodd" clip-rule="evenodd" d="M339.59 0.190002C341.63 0.190002 342.61 1.20999 342.56 3.20999V5.01999H336.38V0.190002H339.59ZM339.59 7.20999C341.59 7.20999 342.56 8.18999 342.56 10.18V31.79H336.38V7.20001H339.59V7.20999ZM263.02 6.84C259.95 6.84 257.63 8.08999 256.05 10.65V3.31C256.05 1.27 255.03 0.200012 252.98 0.200012H249.87V21.16C249.87 28.55 253.73 32.22 261.4 32.17C269.02 32.03 272.83 28.07 272.83 19.71C272.83 11.35 269.57 7.07 263.02 6.84ZM261.21 26.91C257.68 26.91 256 24.4 256.05 19.43C256.23 14.69 257.95 12.37 261.3 12.37C264.65 12.37 266.37 14.69 266.51 19.43C266.51 24.4 264.74 26.91 261.21 26.91ZM287.3 7.20999C279.08 7.20999 274.85 11.16 274.66 19.11V31.79H280.93V19.01C280.93 15.43 282.65 13.62 286.09 13.62H288.18V7.20999H287.3ZM297.01 13.63H297.003C297.337 12.4768 298.546 11.92 300.72 11.92C303.28 11.92 304.58 12.62 304.72 14.01C304.72 15.35 303.37 16.14 300.72 16.47C294.5 17.08 290.22 18.66 290.08 24.56C290.08 29.99 294.17 32.74 300.07 32.27C306.72 31.81 310.81 28.79 310.81 22V13.63C310.67 9.07001 307.24 6.84 300.45 6.84C294.78 6.84 291.57 9.08 290.83 13.63H297.003L297 13.64L297.01 13.63ZM304.81 21.73V19.45C303.37 20.05 301.7 20.57 299.88 20.94C297.42 21.41 296.16 22.57 296.16 24.38C296.3 26.33 297.32 27.26 299.27 27.26C302.71 27.26 304.8 25.22 304.8 21.73H304.81ZM328 25.02C328 26.6 326.7 27.34 324.1 27.34V27.36C321.08 27.36 319.13 26.43 318.99 23.73H312.67C312.67 26.57 313.6 28.71 315.46 30.1C317.14 31.54 319.74 32.28 323.18 32.28C329.69 32.28 334.43 30.05 334.43 24.01C334.43 22.34 333.87 20.85 332.71 19.64C331.36 18.39 328.62 17.32 324.44 16.48C321.23 15.88 319.65 14.91 319.65 13.65C319.65 12.39 320.85 11.74 323.27 11.74C325.32 11.74 326.57 12.34 326.99 13.41C327.36 14.38 328.29 14.89 329.73 14.94H333.63C333.49 12.38 332.51 10.38 330.7 8.94C328.84 7.55 326.33 6.85001 323.17 6.85001C317.54 6.94001 313.36 9.45 313.36 14.75C313.4 18.61 316.19 21.02 321.63 22C325.86 22.74 328 23.76 328 25.02ZM350.68 31.79V3.20999C350.68 1.57999 349.34 0.190002 347.71 0.190002H344.5V31.79H350.68Z" fill="#FECA0D"/>
</svg>
