<?xml version="1.0" encoding="UTF-8"?>
<svg id="Layer_1" xmlns="http://www.w3.org/2000/svg" version="1.1" viewBox="0 0 540.4 224">
  <!-- Generator: Adobe Illustrator 30.6.0, SVG Export Plug-In . SVG Version: 2.1.4 Build 109)  -->
  <defs>
    <style>
      .st0 {
        fill: #111;
      }
    </style>
  </defs>
  <g>
    <path class="st0" d="M172.9,190h13.2c7.3,0,10.6,3.9,10.6,8.5s-2.2,6.4-4.7,7.3c2.3.8,5.8,3.1,5.8,8s-4.8,9.9-11.3,9.9h-13.6v-33.6ZM185.3,203.8c4.6,0,6.4-1.8,6.4-4.9s-2.1-4.8-5.8-4.8h-8.1v9.8h7.5ZM177.8,219.5h8c4.2,0,6.9-1.9,6.9-5.8s-2.2-5.8-7.6-5.8h-7.2v11.6Z"/>
    <path class="st0" d="M228.3,208.1h-16.6v11.3h18.2l-.6,4.2h-22.5v-33.6h22.2v4.3h-17.3v9.7h16.6v4.2Z"/>
    <path class="st0" d="M244.1,214l-3.4,9.6h-5l11.8-33.6h6.2l12.4,33.6h-5.3l-3.5-9.6h-13.2ZM256.1,209.7c-3-8.5-4.8-13.1-5.5-15.7h0c-.8,2.9-2.8,8.5-5.2,15.7h10.7Z"/>
    <path class="st0" d="M277.3,190v20.2c0,7.6,4.2,9.7,8.3,9.7s8.3-2.3,8.3-9.7v-20.2h5v19.9c0,11-6.1,14.1-13.3,14.1s-13.2-3.3-13.2-13.8v-20.2h5Z"/>
    <path class="st0" d="M317,194.2h-10.7v-4.3h26.5v4.3h-10.7v29.3h-5v-29.3Z"/>
    <path class="st0" d="M350.1,223.6v-12.2c0-.3,0-.7-.2-.9l-11.8-20.4h5.7c2.9,5.4,7.5,13.7,9.1,16.8,1.4-3,6.2-11.4,9.3-16.8h5.3l-12.1,20.5c0,.2-.2.4-.2.9v12.2h-5Z"/>
  </g>
  <g>
    <path class="st0" d="M491.5,11.3c-.8,0-1.5-.1-2.1-.4-.6-.3-1.2-.6-1.7-1.1-.5-.5-.8-1-1.1-1.7-.3-.7-.4-1.4-.4-2.3s.1-1.6.4-2.3c.3-.7.6-1.2,1.1-1.7.5-.5,1-.8,1.7-1.1s1.3-.4,2.1-.4,1.5.1,2.2.4,1.2.6,1.7,1.1c.5.5.8,1,1.1,1.7.3.7.4,1.4.4,2.3s-.1,1.6-.4,2.3c-.3.7-.6,1.2-1.1,1.7s-1,.8-1.7,1.1c-.6.3-1.3.4-2,.4ZM491.4,10.1c1.2,0,2.1-.4,2.8-1.1.7-.7,1.1-1.8,1.1-3.1s-.4-2.4-1.1-3.1c-.7-.7-1.7-1.1-2.8-1.1s-2.1.4-2.8,1.1c-.7.7-1.1,1.8-1.1,3.1s.4,2.4,1.1,3.1c.7.7,1.7,1.1,2.8,1.1ZM489.5,3.1h1.9c.5,0,.8,0,1.1.1.3,0,.5.2.7.4s.3.3.3.5c0,.2,0,.4,0,.6,0,.4,0,.7-.2.9-.1.2-.3.4-.7.5l1.1,2.2h-1.3l-1-1.9h-1v1.9h-1.2V3.1ZM491.6,5.4c.4,0,.7,0,.8-.2s.1-.3.1-.5,0-.3-.2-.4c-.1-.1-.4-.2-.9-.2h-.8v1.3h.9Z"/>
    <g>
      <path class="st0" d="M245.8,95.3c0,11.1-1.8,20.4-5.3,27.7-3.5,7.3-8.1,12.7-13.8,16.2-5.7,3.5-11.9,5.2-18.5,5.2s-13.1-1.7-18.9-5.2c-5.8-3.5-10.6-8.9-14.2-16.2-3.6-7.3-5.4-16.6-5.4-27.7V0h-16.3v90.2c0,11.9,2.5,22.1,7.4,30.5,5,8.4,11.6,14.8,19.9,19.1,8.3,4.3,17.4,6.5,27.5,6.5s19-2.1,27.2-6.4c8.2-4.3,14.7-10.7,19.5-19.1,4.8-8.5,7.2-18.7,7.2-30.6V0h-16.3v95.3Z"/>
      <path class="st0" d="M141.6,135.7l-.9-2.1h0s-7.4-17.4-7.4-17.4c0-.2-.1-.4-.2-.5v-.4h-.2c-19.6-44.8-55.8-8.7-60.2-16.8-5.1-9.6,43.4-14.4,25.6-59L82.4,0h-14.4L21.1,115.3h0l-7.8,18.3h0s-.9,2.1-.9,2.1c-2,4.1-4.6,5.1-12,5.1s-.5,2,0,2h9.3,0s16.8,0,16.8,0h-2.1s14.2,0,14.2,0c.4,0,.4-2,0-2-7.8,0-12-1.1-11.1-5.6l7.3-18.1.8-1.9h0L75.2,17.7l10,24.6c13.2,35.4-19,48.2-12.8,56.5,7.1,9.5,28.6-12.3,44.9,18.8l5.4,13c.6,1.9,1.2,3.9,1.8,6-.1,3.4-4.2,4.3-11.2,4.3s-.4,2,0,2h14.2s16.8,0,16.8,0h0s9.3,0,9.3,0c.5,0,.4-2,0-2-7.4,0-10-1-12-5.1Z"/>
      <path class="st0" d="M540,140.8c-7.4,0-10-1-12-5.1l-.9-2.1h0s-7.4-17.4-7.4-17.4c0-.2-.1-.4-.2-.5v-.4h-.2c-19.6-44.8-55.8-8.7-60.2-16.8-5.1-9.6,43.4-14.4,25.6-59L468.7,0h-14.4l-46.9,115.3h0l-7.8,18.3h0s-.9,2.1-.9,2.1c-1.3,2.7-2.9,4.1-5.9,4.7-5.9-1.5-11.1-5-14.7-10.1-2.2-3.2-4.7-7.3-8.9-16.3-5.5-11.2-10-18.8-14.6-24-2.5-2.8-5.7-4.9-9.1-6.3h.1s-1.3-.6-4-1.2c-.1,0-.2,0-.3,0-2.9-.6-7.2-1.2-13.3-1.2,0,0-4.9.3-5.7-1.8,0-.2-.1-.4-.1-.6,0-3.1,4.6-3.8,4.6-3.8l12.8-1.9c24.7-3.5,41.1-17.7,41.1-37.5S359.7,0,326.3,0h-.1.1s-48,0-48,0c-.5,0-.4,1.5,0,1.5,10.5,0,12.4,2,12.7,12.8v116.4c-.5,9-2.7,10.8-13.2,10.8s-.4,1.5,0,1.5h42.1c.5,0,.4-1.5,0-1.5-10.7,0-12.9-1.9-13.2-11.9V14.1c.2-8.2,1.3-11.2,6.6-12.2h9.9c26.4,0,39.8,11.2,39.8,33.7s-3.4,19.8-9.7,26.4c-8.8,8.7-22.1,10.7-24.4,10.9,0,0-.2,0-.3,0h0c-2,.2-8.5,1.4-8.5,5.5,0,0-.2,3.5,5.2,4.4h0s0,0,0,0c0,0,0,0,0,0h0s0,0,.1,0c0,0,.1,0,.2,0,1.8.3,10.4,1.9,15.2,8.1,3.2,4,6.6,10.5,11.5,21.7,4.8,11.2,9,19.3,12.5,24.9,2.2,3.4,4.6,5.4,9.9,5.4h24.4s0,0,0-.1h13.5-2.1s14.2,0,14.2,0c.4,0,.4-2,0-2-7.8,0-12-1.1-11.1-5.6l7.3-18.1.8-1.9h0l39.7-97.6,10,24.6c13.2,35.4-19,48.2-12.8,56.5,7.1,9.5,28.6-12.3,44.9,18.8l5.4,13c.6,1.9,1.2,3.9,1.8,6-.1,3.4-4.2,4.3-11.2,4.3s-.4,2,0,2h14.2s16.8,0,16.8,0h0s9.3,0,9.3,0c.5,0,.4-2,0-2Z"/>
    </g>
  </g>
</svg>