<?xml version="1.0" encoding="UTF-8"?>
<svg id="Layer_1" xmlns="http://www.w3.org/2000/svg" version="1.1" viewBox="0 0 841.89 595.28">
  <!-- Generator: Adobe Illustrator 29.5.1, SVG Export Plug-In . SVG Version: 2.1.0 Build 141)  -->
  <defs>
    <style>
      .st0 {
        fill: #231f20;
      }

      .st1 {
        fill: #fff;
      }
    </style>
  </defs>
  <rect class="st0" x="-1.17" y=".28" width="843.06" height="594.44"/>
  <g>
    <path class="st1" d="M627.83,279.13l90.05-115.45h-49.23l-96.61,125.88v-91.51h-.12v-33.86h-42.29v177.88l-36.02-61.49c5.17-2.41,9.86-5.4,14.05-8.96,4.19-3.57,7.76-7.67,10.7-12.31,2.94-4.64,5.22-9.79,6.82-15.45,1.6-5.66,2.41-11.71,2.41-18.13,0-9.19-1.63-17.55-4.88-25.09-3.26-7.54-7.81-14-13.65-19.4-5.85-5.4-12.78-9.59-20.8-12.58-8.03-2.99-16.81-4.48-26.36-4.48h-79.74v85.27l-35.06-85.68h-39.93l-29.91,73.08c-1.19-7.43-3.1-14.32-5.81-20.64-4.81-11.25-11.45-20.71-19.91-28.36-8.46-7.65-18.46-13.43-30-17.35-11.54-3.92-24.03-5.87-37.48-5.87h-71.98v181.49h165.35l11.52-28.94,14.6-36.18,22.1-55.06,1.34-5.9h.27l1.34,5.9,22.11,55.06,14.6,36.18,11.66,28.94h47.6v-44.15h-.06v-54.47h.06v-46.94h35.59c3.48,0,6.73.63,9.77,1.87,3.03,1.25,5.69,2.99,7.96,5.22,2.28,2.23,4.06,4.88,5.35,7.96,1.29,3.08,1.94,6.45,1.94,10.1s-.65,7.13-1.94,10.17c-1.29,3.03-3.08,5.62-5.35,7.76-2.27,2.14-4.93,3.81-7.96,5.02-3.04,1.2-6.29,1.81-9.77,1.81h-8.82v36.39h.26l31.71,59.27h88.36s-.05.08-.07.11l-35.76,81.67c-.04.08-.08.2-.12.35-.04.15-.06.5-.06,1.04,0,.97.71,1.45,2.14,1.45h7.75l4.25-10.2,24.4-57.21,24.23,57.21,3.85,10.2h8.2c1.39,0,2.09-.48,2.09-1.45,0-.08-.02-.19-.06-.35-.04-.15-.08-.33-.12-.52l-.12-.58.06.06c-2.78-6.76-5.67-13.54-8.66-20.34-3-6.8-6-13.59-9.01-20.38-3.02-6.78-6.02-13.56-9.01-20.35-2.99-6.78-5.88-13.57-8.66-20.37-.08-.12-.15-.28-.2-.49-.06-.21-.16-.42-.32-.61s-.39-.36-.7-.49c-.31-.13-.73-.2-1.27-.2h-.41c-.45,0-.8.05-1.1.13l27.28-34.51,27.56-31.17Z"/>
    <path class="st1" d="M476.45,420.8h-42.08v-74.2c0-.66-.17-1.13-.52-1.42-.35-.29-.79-.44-1.33-.44h-6.03c-.66,0-1.15.17-1.48.52s-.49.79-.49,1.33v82.31c0,1.24.62,1.86,1.86,1.86h50.08c.54,0,.98-.17,1.33-.52.35-.35.52-.79.52-1.33v-6.03c0-.7-.19-1.22-.58-1.57-.39-.35-.81-.52-1.27-.52Z"/>
    <path class="st1" d="M732.6,399.64c-.6-2.01-1.45-3.9-2.55-5.68-1.1-1.78-2.42-3.42-3.94-4.92-1.53-1.51-3.24-2.82-5.13-3.94,2.51-2.28,4.47-4.92,5.88-7.91,1.41-2.99,2.12-6.15,2.12-9.48s-.6-6.27-1.8-9.07c-1.2-2.8-2.84-5.23-4.93-7.27l-5.35-6.51-57.73-86.93-26.22,33.61,34.89,54.79h0s.01.03.03.05l15.47,25.61h12.33l-10.41-17.38h20.29c1.93,0,3.71.33,5.33.99,1.62.66,3.01,1.56,4.17,2.72,1.16,1.16,2.07,2.54,2.72,4.14.66,1.6.98,3.35.98,5.25s-.34,3.8-1.01,5.48c-.68,1.68-1.6,3.14-2.78,4.38s-2.59,2.2-4.23,2.9c-1.64.7-3.41,1.04-5.3,1.04h-4.06l-.06-.11h-12.29l.06.11h-18.09c-.58,0-1.05.18-1.42.55s-.55.84-.55,1.42v45.45c0,.66.18,1.13.55,1.42.37.29.88.44,1.54.44h38.37c3.4,0,6.57-.68,9.51-2.03,2.94-1.35,5.48-3.18,7.62-5.48,2.14-2.3,3.82-4.95,5.04-7.94,1.22-3,1.83-6.15,1.83-9.48,0-2.13-.3-4.19-.9-6.2ZM722.2,411.58c-.74,1.81-1.73,3.42-2.99,4.81-1.26,1.39-2.73,2.49-4.43,3.3s-3.5,1.22-5.39,1.22h-30.49v-29.56h30.49c1.93,0,3.75.39,5.45,1.16,1.7.77,3.18,1.83,4.43,3.16,1.25,1.33,2.24,2.88,2.96,4.64.71,1.76,1.07,3.6,1.07,5.54s-.37,3.92-1.1,5.74Z"/>
  </g>
  <g>
    <path class="st0" d="M123.77,215.35c1.13-8.47,1.78-17.81,3.73-26.87,1.33-6.2,3.22-12.09,5.76-17.59h-8.01c-4.82,14.47-5.1,30.4-1.48,44.45Z"/>
    <path class="st0" d="M258.57,264.09c1.89-4.3,4.16-8.12,5.27-12.26,2.39-8.85,3.17-16.1-7.04-24.1-2.52-1.97-4.73-4.42-6.76-6.9-4-4.9-4.21-10.44-2.14-17.2,1.46,7.48,5.35,12.17,11.59,16.86.48-4.4,1.06-8.47,1.53-12.43-3.84-5.89-8.4-11.11-13.69-15.63-8.29-7.09-18.1-12.46-29.41-16.09-11.31-3.63-23.56-5.44-36.74-5.44h-26.08c-.27,1.06-.51,2.14-.72,3.24-3.55,18.92,4.37,34.62,15.64,49.29-4.59-2.55-8.68-5.42-13.2-7.18-4.54-1.77-9.5-2.43-14.53-3.64-.84-4.32-.15-9.63-4.45-14.43,0,1.8-.04,2.73,0,3.65.44,7.78-.77,14.92-5.99,21.3-2.84,3.47-3.13,8.23-2.8,12.77,2.59-3.57,5.71-5.67,10.02-6.72,6.81-1.66,12.18.71,17.16,4.81,4.3,3.53,8.28,7.5,12.78,10.75,5.48,3.96,10.69,2.4,13.76-3.79,3.45,6.89,2.64,13.39-1.28,19.42-2.29,3.51-5.29,6.57-8.07,9.75-3.69,4.23-6.35,8.91-7.16,14.49.35.31.71.63,1.06.94,2.37-3.01,4.75-6.02,7.12-9.03.29.28.59.55.88.83-.54,1.5-1.14,2.98-1.62,4.5-2.65,8.33-3.75,16.73-.9,25.25,2.56,7.67,9.97,13.3,18.82,4.9v24.26c1.93-4.67,3.53-8.54,5.49-13.26,2.9,3.26,4.99,5.61,6.97,7.83,1.95-4.18,3.85-8.25,5.72-12.25,1.98,3.09,3.67,5.71,5.36,8.34,2.55-7.55,3.43-14.97,9.01-20.42-.34,2.75-1.04,5.37-1.55,8.04-.92,4.83-.43,5.85,2.76,6.26,1.16-4.81,1.88-9.78,3.6-14.39,1.67-4.46,4.09-8.71,6.7-12.7,1.61-2.47,4.49-3.19,7.09-2.33-1.57,2.37-3.12,4.73-4.68,7.09,7.08-.16,12.05,2.01,15.71,7.3,7.8-5.72,12.19-13.04,13.58-21.98,1.31-8.44-2.62-14.86-8.84-19.7ZM207.19,300.7c-.24,2.2-.68,4.43-1.42,6.51-1.63,4.56-4.08,5.4-8.8,3.26,1.31-1.22,2.6-2.43,3.96-3.69-5.83-4.9-5.29-11.71-6.4-17.96-.48-2.69-1.15-5.35-1.73-8.03-.53-.03-1.07-.05-1.6-.08-.62,1.85-1.47,3.66-1.82,5.56-.67,3.66-.72,7.46-1.67,11.03-.89,3.33-2.61,6.43-4.22,10.24.52.46,1.86,1.68,3.19,2.88-4.61,2.27-7.86,1.41-8.84-3.4-1.07-5.24-1.72-10.89-.91-16.11.98-6.29,3.6-12.34,5.66-18.44,1.5-4.43,5.17-5.19,9.31-5.18,4.17,0,7.6.96,9.25,5.32,3.42,9.07,7.14,18.08,6.06,28.09ZM254.44,237.4c-2.2-.29-4.41-.58-7.79-1.02,6.17,7.59,8.24,14.89,3.62,22.78-3.55,6.05-8.93,9.72-15.79,11.43,2.33-3.22,4.5-6.21,6.66-9.21-8.51,6.19-17.17,7.95-27.33,3.5.42,2.23.75,3.98,1.06,5.65-14.15-4.06-20.09-21.09-13.97-29.81,3.29,7.3,8.99,8.26,16.05,2.49,3.83-3.13,7.29-6.72,11.13-9.84,6.95-5.65,14.18-6.32,21.72-1.88,2.07,1.22,3.53,3.46,5.27,5.23-.21.22-.42.44-.63.67Z"/>
  </g>
</svg>